<?xml version="1.0" encoding="utf-8"?>
<!-- Generator: Adobe Illustrator 28.1.0, SVG Export Plug-In . SVG Version: 6.00 Build 0)  -->
<svg version="1.1" id="Layer_1" xmlns="http://www.w3.org/2000/svg" xmlns:xlink="http://www.w3.org/1999/xlink" x="0px" y="0px"
	 viewBox="0 0 300 300" style="enable-background:new 0 0 300 300;" xml:space="preserve">
<path d="M150,1c-18.1,0-35.5,3.2-51.6,9.1c-4.6,1.7-9.1,3.6-13.5,5.7c-6.6,3.2-12.9,6.8-18.8,10.8c-16,10.8-29.7,24.6-40.5,40.5
	C9.4,91.1,0,119.9,0,151c0,41.4,16.8,78.9,43.9,106.1L1.5,299.5L0,301h3.1H150c25.9,0,50.2-6.6,71.5-18.1c4.3-2.3,8.4-4.8,12.4-7.5
	c4-2.7,7.8-5.6,11.5-8.6c9.3-7.6,17.6-16.4,24.8-26c1.4-1.9,2.8-3.9,4.2-5.9c4-6,7.7-12.3,10.8-18.8c9.5-19.7,14.8-41.7,14.8-65
	c0-7.8-0.6-15.4-1.7-22.8c-2.7-17.4-8.3-33.8-16.4-48.7c-4.6-8.5-10-16.5-16.1-23.9c-9.2-11.1-19.9-20.9-31.9-29
	c-4-2.7-8.1-5.2-12.4-7.5c-4.3-2.3-8.6-4.4-13.1-6.3c-4.5-1.9-9.1-3.6-13.8-5C180.5,3.4,165.5,1,150,1z"/>
</svg>
