<?xml version="1.0" encoding="utf-8"?>
<!-- Generator: Adobe Illustrator 28.1.0, SVG Export Plug-In . SVG Version: 6.00 Build 0)  -->
<svg version="1.1" id="Layer_1" xmlns="http://www.w3.org/2000/svg" xmlns:xlink="http://www.w3.org/1999/xlink" x="0px" y="0px"
	 viewBox="0 0 582.7 590.8" style="enable-background:new 0 0 582.7 590.8;" xml:space="preserve">
<style type="text/css">
	.st0{fill:#4AB739;}
	.st1{fill:#2B9FD7;}
	.st2{fill:#0E628A;}
</style>
<g>
	<path id="Path_493_00000045581150957240819990000000773590039408746394_" class="st0" d="M513.6,69C421.5-23,272.2-23,180.2,69.1
		s-92.1,241.4,0,333.4c44.2,44.2,104.2,69,166.7,69l0,94.3l0,3.3l166.7-166.7C605.7,310.4,605.7,161.1,513.6,69"/>
	<path id="Path_137" class="st1" d="M155.6,449.2c0-28.6-23.2-51.9-51.9-51.9c-28.6,0-51.9,23.2-51.9,51.9
		c0,13.8,5.5,26.9,15.2,36.7l-14.7,14.7l-0.5,0.5h51.9C132.4,501,155.6,477.8,155.6,449.2"/>
	<path id="Path_493" class="st0" d="M88.5,33.3c-20.3-20.3-53.1-20.3-73.3,0s-20.3,53.1,0,73.3c9.7,9.7,22.9,15.2,36.7,15.2l0,20.7
		l0,0.7l36.7-36.7C108.8,86.4,108.8,53.6,88.5,33.3"/>
	<path id="Path_494" class="st2" d="M543.9,475.1c-24.8-14.3-56.5-5.8-70.8,19c-14.3,24.8-5.8,56.5,19,70.8
		c11.9,6.9,26.1,8.7,39.3,5.2l5.4,20l0.2,0.7l25.9-44.9C577.2,521.1,568.7,489.4,543.9,475.1"/>
</g>
</svg>
