<?xml version="1.0" encoding="utf-8"?>
<!-- Generator: Adobe Illustrator 28.1.0, SVG Export Plug-In . SVG Version: 6.00 Build 0)  -->
<svg version="1.1" id="Layer_1" xmlns="http://www.w3.org/2000/svg" xmlns:xlink="http://www.w3.org/1999/xlink" x="0px" y="0px"
	 viewBox="0 0 300 300" style="enable-background:new 0 0 300 300;" xml:space="preserve">
<style type="text/css">
	.st0{fill:#D5ECF7;}
</style>
<g>
	<polygon class="st0" points="300,120 300,119.4 300,90 300,90 300,120 	"/>
	<path class="st0" d="M113.2,105.1c1.2-0.8,2.5-1.5,3.8-2.2C115.7,103.6,114.4,104.3,113.2,105.1z"/>
	<path class="st0" d="M117,103c0.9-0.4,1.8-0.8,2.7-1.1C118.8,102.2,117.9,102.5,117,103z"/>
	<path class="st0" d="M113.2,105.1c-3.2,2.2-5.9,4.9-8.1,8.1C107.3,110,110,107.3,113.2,105.1z"/>
	<path class="st0" d="M108.8,151.2c-5.4-5.4-8.8-12.9-8.8-21.2c0-6.2,1.9-12,5.1-16.8c-3.2,4.8-5.1,10.6-5.1,16.8
		C100,138.3,103.4,145.8,108.8,151.2l-8.5,8.5L100,160h0l0.3-0.3L108.8,151.2z"/>
	<path class="st0" d="M80,80h0.6H110c16.6,0,30-13.4,30-30c0-16.6-13.4-30-30-30c-16.6,0-30,13.4-30,30c0,8.3,3.4,15.8,8.8,21.2
		l-8.5,8.5L80,80z"/>
	<path class="st0" d="M30,60c16.6,0,30-13.4,30-30C60,13.4,46.6,0,30,0C13.4,0,0,13.4,0,30c0,8.3,3.4,15.8,8.8,21.2l-8.5,8.5L0,60
		h0.6H30z"/>
	<path class="st0" d="M71.2,131.2l8.5,8.5L80,140v-0.6V110c0-16.6-13.4-30-30-30c-16.6,0-30,13.4-30,30c0,16.6,13.4,30,30,30
		C58.3,140,65.8,136.6,71.2,131.2z"/>
	<path class="st0" d="M160,100h0.6H190c16.6,0,30-13.4,30-30c0-16.6-13.4-30-30-30s-30,13.4-30,30c0,8.3,3.4,15.8,8.8,21.2l-8.5,8.5
		L160,100z"/>
	<path class="st0" d="M170,20c8.3,0,15.8-3.4,21.2-8.8l8.5,8.5L200,20v-0.6V0h-58.3C145.8,11.7,156.9,20,170,20z"/>
	<path class="st0" d="M250,40c8.3,0,15.8-3.4,21.2-8.8l8.5,8.5L280,40v-0.6V10c0-3.5-0.6-6.9-1.7-10h-56.6c-1.1,3.1-1.7,6.5-1.7,10
		C220,26.6,233.4,40,250,40z"/>
	<path class="st0" d="M270,60c-16.6,0-30,13.4-30,30s13.4,30,30,30c8.3,0,15.8-3.4,21.2-8.8l8.5,8.5l0.3,0.3V90
		C300,73.4,286.6,60,270,60z"/>
	<path class="st0" d="M40,250c0-16.6-13.4-30-30-30c-3.5,0-6.9,0.6-10,1.7V280h10C26.6,280,40,266.6,40,250z"/>
	<path class="st0" d="M90,240c-16.6,0-30,13.4-30,30c0,16.6,13.4,30,30,30c8.3,0,15.8-3.4,21.2-8.8l8.5,8.5l0.3,0.3v-0.6V270
		C120,253.4,106.6,240,90,240z"/>
	<path class="st0" d="M19.7,199.7L20,200v-0.6V170c0-13.1-8.3-24.2-20-28.3v56.6c4.3-1.5,8.1-3.9,11.2-7.1L19.7,199.7z"/>
	<path class="st0" d="M91.2,211.2l8.5,8.5l0.3,0.3v-0.6V190c0-16.6-13.4-30-30-30c-16.6,0-30,13.4-30,30s13.4,30,30,30
		C78.3,220,85.8,216.6,91.2,211.2z"/>
	<path class="st0" d="M156.4,115.7c1.6,3,2.7,6.3,3.3,9.7C159.1,122,158,118.7,156.4,115.7z"/>
	<path class="st0" d="M153.1,110.9c1.2,1.5,2.3,3.1,3.2,4.8C155.5,114,154.4,112.4,153.1,110.9z"/>
	<path class="st0" d="M144.3,103.6c0.9,0.5,1.7,1,2.5,1.5C146,104.6,145.1,104.1,144.3,103.6z"/>
	<path class="st0" d="M149.1,153.1c1.9-1.5,3.5-3.3,5-5.2C152.6,149.9,150.9,151.6,149.1,153.1z"/>
	<path class="st0" d="M141.7,102.4c-0.9-0.4-1.8-0.7-2.8-1C139.9,101.6,140.8,102,141.7,102.4z"/>
	<path class="st0" d="M146.8,154.9c-0.8,0.5-1.6,1-2.5,1.5C145.1,155.9,146,155.4,146.8,154.9z"/>
	<path class="st0" d="M157,143c-0.6,1.3-1.4,2.6-2.2,3.8C155.7,145.6,156.4,144.3,157,143z"/>
	<path class="st0" d="M157,143c1.9-3.9,3-8.3,3-13c0-1.6-0.1-3.1-0.3-4.6c0.2,1.5,0.3,3,0.3,4.6C160,134.7,158.9,139.1,157,143z"/>
	<path class="st0" d="M130,100c-3.6,0-7.1,0.6-10.3,1.8c-0.9,0.3-1.8,0.7-2.7,1.1c-1.3,0.6-2.6,1.4-3.8,2.2
		c-3.2,2.2-5.9,4.9-8.1,8.1c-3.2,4.8-5.1,10.6-5.1,16.8c0,8.3,3.4,15.8,8.8,21.2l-8.5,8.5L100,160h0.6H130c5.2,0,10-1.3,14.3-3.6
		c0.9-0.5,1.7-1,2.5-1.5c0.8-0.5,1.6-1.1,2.3-1.7c1.9-1.5,3.5-3.3,5-5.2c0.3-0.4,0.6-0.8,0.8-1.2c0.8-1.2,1.5-2.5,2.2-3.8
		c1.9-3.9,3-8.3,3-13c0-1.6-0.1-3.1-0.3-4.6c-0.5-3.5-1.7-6.8-3.3-9.7c-0.9-1.7-2-3.3-3.2-4.8c-1.8-2.2-4-4.2-6.4-5.8
		c-0.8-0.5-1.6-1-2.5-1.5c-0.9-0.5-1.7-0.9-2.6-1.3c-0.9-0.4-1.8-0.7-2.8-1C136.1,100.5,133.1,100,130,100z"/>
	<path class="st0" d="M240,150c0-16.6-13.4-30-30-30s-30,13.4-30,30c0,8.3,3.4,15.8,8.8,21.2l-8.5,8.5L180,180h0.6H210
		C226.6,180,240,166.6,240,150z"/>
	<path class="st0" d="M280,250c0,8.3,3.4,15.8,8.8,21.2l-8.5,8.5L280,280h0.6H300v-58.3C288.3,225.8,280,236.9,280,250z"/>
	<path class="st0" d="M260,230c0-16.6-13.4-30-30-30s-30,13.4-30,30c0,8.3,3.4,15.8,8.8,21.2l-8.5,8.5L200,260h0.6H230
		C246.6,260,260,246.6,260,230z"/>
	<path class="st0" d="M150,180c-16.6,0-30,13.4-30,30s13.4,30,30,30c8.3,0,15.8-3.4,21.2-8.8l8.5,8.5l0.3,0.3v-0.6V210
		C180,193.4,166.6,180,150,180z"/>
	<path class="st0" d="M170,260c-16.6,0-30,13.4-30,30c0,3.5,0.6,6.9,1.7,10H200v-10C200,273.4,186.6,260,170,260z"/>
	<path class="st0" d="M250,280c-13.1,0-24.2,8.3-28.3,20h56.6C274.2,288.3,263.1,280,250,280z"/>
	<path class="st0" d="M260,170c0,16.6,13.4,30,30,30c3.5,0,6.9-0.6,10-1.7v-56.6c-3.1-1.1-6.5-1.7-10-1.7
		C273.4,140,260,153.4,260,170z"/>
</g>
</svg>
