<?xml version="1.0" encoding="utf-8"?>
<!-- Generator: Adobe Illustrator 28.1.0, SVG Export Plug-In . SVG Version: 6.00 Build 0)  -->
<svg version="1.1" id="Layer_1" xmlns="http://www.w3.org/2000/svg" xmlns:xlink="http://www.w3.org/1999/xlink" x="0px" y="0px"
	 viewBox="0 0 980.2 364.6" style="enable-background:new 0 0 980.2 364.6;" xml:space="preserve">
<style type="text/css">
	.st0{fill:#4AB739;}
	.st1{fill:#2B9FD7;}
	.st2{fill:#FFFFFF;}
	.st3{fill:#0E628A;}
</style>
<g>
	<g>
		<path class="st0" d="M257.8,44.2c-59-59-154.6-59-213.6,0c-56.3,56.3-58.8,145.8-7.7,205.2L59,226.9
			c-17.6-21.3-27.2-47.9-27.2-75.9C31.7,85.3,85.2,31.7,151,31.7c65.8,0,119.3,53.5,119.3,119.3c0,65.8-53.5,119.3-119.3,119.3H58.4
			c27.2,21.1,59.9,31.7,92.6,31.7v62.6l106.8-106.8C316.8,198.8,316.8,103.2,257.8,44.2z"/>
		<path class="st1" d="M151,258.9c59.6,0,107.9-48.3,107.9-107.9c0-59.6-48.3-107.9-107.9-107.9S43.1,91.5,43.1,151
			c0,29.8,12.1,56.8,31.6,76.3l-31.6,31.6H151z M203,107.9h11.6v76.4h13.9v11.1H203V107.9z M180.8,107.9v76.4h13.9v11.1h-25.6v-87.5
			H180.8z M132.4,107.9h17.1l11.9,87.5h-11.6l-2.3-19.4h-12.9l-2.3,19.4h-11.6L132.4,107.9z M78.4,124.7c0-12.9,8.2-18.3,18.5-18.3
			c9.1,0,17.6,4.3,17.6,17.5v14.5h-11.6v-12.2c0-6.4-3.2-8.7-6.4-8.7c-3.2,0-6.4,2.3-6.4,8.7v50.9c0,6.4,3.2,8.7,6.4,8.7
			c3.2,0,6.4-2.3,6.4-8.7v-11h11.6v12.4c0,13.1-8.3,18.3-17.9,18.3c-9.8,0-18.2-5.4-18.2-18.3V124.7z"/>
		<polygon class="st1" points="141,121.2 135.8,164.9 146.1,164.9 		"/>
		<path class="st2" d="M96.6,196.8c9.6,0,17.9-5.1,17.9-18.3v-12.4h-11.6v11c0,6.4-3.2,8.7-6.4,8.7c-3.2,0-6.4-2.3-6.4-8.7v-50.9
			c0-6.4,3.2-8.7,6.4-8.7c3.2,0,6.4,2.3,6.4,8.7v12.2h11.6v-14.5c0-13.1-8.4-17.5-17.6-17.5c-10.3,0-18.5,5.4-18.5,18.3v53.9
			C78.4,191.5,86.7,196.8,96.6,196.8z"/>
		<path class="st2" d="M134.6,175.9h12.9l2.3,19.4h11.6l-11.9-87.5h-17.1l-11.8,87.5h11.6L134.6,175.9z M141,121.2l5.1,43.6h-10.3
			L141,121.2z"/>
		<polygon class="st2" points="169.2,195.3 194.7,195.3 194.7,184.3 180.8,184.3 180.8,107.9 169.2,107.9 		"/>
		<polygon class="st2" points="228.5,184.3 214.6,184.3 214.6,107.9 203,107.9 203,195.3 228.5,195.3 		"/>
	</g>
	<g>
		<path class="st3" d="M351.3,96.9V30.5h14.4l21.2,42.1l20.9-42.1h14.4v66.4H410V51.1l-18.5,36.3h-9.6l-18.5-36.3v45.8H351.3z"/>
		<path class="st3" d="M457.6,98.1c-4.7,0-8.9-1-12.6-3c-3.7-2-6.6-4.9-8.6-8.5c-2.1-3.7-3.1-7.9-3.1-12.7c0-4.9,1-9.2,3.1-13
			c2.1-3.8,4.9-6.8,8.5-8.9c3.6-2.1,7.9-3.2,12.9-3.2c4.6,0,8.7,1,12.2,3c3.5,2,6.3,4.8,8.3,8.3c2,3.5,3,7.4,3,11.7
			c0,0.7,0,1.4,0,2.2c0,0.8-0.1,1.5-0.1,2.4h-35.8c0.3,3.7,1.5,6.5,3.8,8.6c2.3,2.1,5.1,3.1,8.4,3.1c2.5,0,4.5-0.6,6.2-1.7
			c1.7-1.1,2.9-2.5,3.8-4.3h12.3c-0.9,3-2.4,5.7-4.4,8.1c-2.1,2.4-4.6,4.4-7.6,5.7C464.8,97.4,461.4,98.1,457.6,98.1z M457.7,58.6
			c-3,0-5.6,0.8-7.9,2.5c-2.3,1.7-3.7,4.2-4.4,7.6h23.4c-0.2-3.1-1.3-5.6-3.4-7.4C463.4,59.5,460.8,58.6,457.7,58.6z"/>
		<path class="st3" d="M491.5,96.9V49.9h10.7l1,8c1.5-2.8,3.6-5,6.3-6.6c2.8-1.6,6-2.5,9.7-2.5c5.8,0,10.3,1.8,13.6,5.5
			c3.2,3.7,4.8,9,4.8,16.1v26.6h-12.2V71.5c0-4.1-0.8-7.1-2.5-9.3c-1.6-2.2-4.2-3.2-7.7-3.2c-3.4,0-6.2,1.2-8.4,3.6
			c-2.2,2.4-3.3,5.8-3.3,10.1v24.3H491.5z"/>
		<path class="st3" d="M570.2,96.9c-4.9,0-8.9-1.2-11.9-3.6c-3-2.4-4.5-6.7-4.5-12.8V60h-8.1V49.9h8.1l1.4-12.6H566v12.6h12.7V60
			H566v20.6c0,2.3,0.5,3.8,1.5,4.7c1,0.9,2.7,1.3,5.1,1.3h5.9v10.3H570.2z"/>
		<path class="st3" d="M605.4,98.1c-4.1,0-7.4-0.6-10-1.9s-4.5-3-5.8-5.2c-1.3-2.2-1.9-4.5-1.9-7.1c0-4.4,1.7-7.9,5.1-10.6
			s8.5-4.1,15.4-4.1h12V68c0-3.2-0.9-5.6-2.8-7.1c-1.8-1.5-4.1-2.3-6.8-2.3c-2.5,0-4.6,0.6-6.5,1.8c-1.8,1.2-3,2.9-3.4,5.2h-11.9
			c0.3-3.4,1.5-6.4,3.5-8.9c2-2.5,4.6-4.5,7.7-5.8c3.2-1.4,6.7-2,10.6-2c6.7,0,12,1.7,15.8,5c3.9,3.4,5.8,8.1,5.8,14.2v28.9H622
			l-1.1-7.6c-1.4,2.5-3.3,4.6-5.8,6.3C612.5,97.3,609.3,98.1,605.4,98.1z M608.2,88.6c3.5,0,6.2-1.1,8.1-3.4
			c1.9-2.3,3.1-5.1,3.6-8.4h-10.3c-3.2,0-5.5,0.6-6.9,1.8c-1.4,1.2-2.1,2.6-2.1,4.3c0,1.8,0.7,3.3,2.1,4.3
			C604,88.1,605.9,88.6,608.2,88.6z"/>
		<path class="st3" d="M643.9,96.9V28.6h12.1v68.3H643.9z"/>
		<path class="st3" d="M691.4,96.9V30.5h12.1v27.6h29.8V30.5h12.2v66.4h-12.2V68h-29.8v28.9H691.4z"/>
		<path class="st3" d="M781,98.1c-4.7,0-9-1-12.6-3c-3.7-2-6.5-4.9-8.6-8.5c-2.1-3.7-3.1-7.9-3.1-12.7c0-4.9,1-9.2,3.1-13
			c2.1-3.8,4.9-6.8,8.5-8.9c3.6-2.1,7.9-3.2,12.9-3.2c4.6,0,8.7,1,12.2,3c3.5,2,6.3,4.8,8.3,8.3c2,3.5,3,7.4,3,11.7
			c0,0.7,0,1.4,0,2.2c0,0.8-0.1,1.5-0.1,2.4h-35.8c0.3,3.7,1.5,6.5,3.8,8.6c2.3,2.1,5.1,3.1,8.4,3.1c2.5,0,4.5-0.6,6.2-1.7
			c1.7-1.1,2.9-2.5,3.7-4.3h12.3c-0.9,3-2.4,5.7-4.4,8.1c-2.1,2.4-4.6,4.4-7.6,5.7C788.2,97.4,784.8,98.1,781,98.1z M781.1,58.6
			c-3,0-5.6,0.8-7.9,2.5c-2.3,1.7-3.7,4.2-4.4,7.6h23.4c-0.2-3.1-1.3-5.6-3.4-7.4C786.8,59.5,784.2,58.6,781.1,58.6z"/>
		<path class="st3" d="M831.1,98.1c-4.1,0-7.4-0.6-10-1.9c-2.6-1.3-4.5-3-5.8-5.2c-1.3-2.2-1.9-4.5-1.9-7.1c0-4.4,1.7-7.9,5.1-10.6
			c3.4-2.7,8.5-4.1,15.4-4.1h12V68c0-3.2-0.9-5.6-2.7-7.1c-1.8-1.5-4.1-2.3-6.8-2.3c-2.5,0-4.6,0.6-6.5,1.8c-1.8,1.2-3,2.9-3.4,5.2
			h-11.9c0.3-3.4,1.5-6.4,3.5-8.9c2-2.5,4.6-4.5,7.7-5.8c3.2-1.4,6.7-2,10.6-2c6.7,0,12,1.7,15.8,5c3.9,3.4,5.8,8.1,5.8,14.2v28.9
			h-10.3l-1.1-7.6c-1.4,2.5-3.3,4.6-5.8,6.3C838.2,97.3,835,98.1,831.1,98.1z M833.8,88.6c3.5,0,6.2-1.1,8.1-3.4
			c1.9-2.3,3.1-5.1,3.7-8.4h-10.3c-3.2,0-5.5,0.6-6.9,1.8c-1.4,1.2-2.1,2.6-2.1,4.3c0,1.8,0.7,3.3,2.1,4.3
			C829.7,88.1,831.5,88.6,833.8,88.6z"/>
		<path class="st3" d="M869.6,96.9V28.6h12.1v68.3H869.6z"/>
		<path class="st3" d="M915.1,96.9c-4.9,0-8.9-1.2-11.9-3.6c-3-2.4-4.5-6.7-4.5-12.8V60h-8.1V49.9h8.1l1.4-12.6H911v12.6h12.7V60
			H911v20.6c0,2.3,0.5,3.8,1.5,4.7c1,0.9,2.7,1.3,5.1,1.3h5.9v10.3H915.1z"/>
		<path class="st3" d="M934.1,96.9V28.6h12.1v28.5c1.6-2.6,3.7-4.6,6.4-6.1c2.7-1.5,5.8-2.2,9.3-2.2c5.8,0,10.3,1.8,13.5,5.5
			c3.2,3.7,4.8,9,4.8,16.1v26.6h-12V71.5c0-4.1-0.8-7.1-2.4-9.3c-1.6-2.2-4.2-3.2-7.6-3.2c-3.4,0-6.2,1.2-8.5,3.6
			c-2.3,2.4-3.4,5.8-3.4,10.1v24.3H934.1z"/>
		<path class="st3" d="M351.3,198.6v-66.4h12.1v27.6h29.8v-27.6h12.2v66.4h-12.2v-28.9h-29.8v28.9H351.3z"/>
		<path class="st3" d="M440.8,199.8c-4.7,0-9-1-12.6-3c-3.7-2-6.5-4.9-8.6-8.5c-2.1-3.7-3.1-7.9-3.1-12.7c0-4.9,1-9.2,3.1-13
			c2.1-3.8,4.9-6.8,8.5-8.9c3.6-2.1,7.9-3.2,12.9-3.2c4.6,0,8.7,1,12.2,3c3.5,2,6.3,4.8,8.3,8.3c2,3.5,3,7.4,3,11.7
			c0,0.7,0,1.4,0,2.2c0,0.8-0.1,1.5-0.1,2.4h-35.8c0.3,3.7,1.5,6.5,3.8,8.6c2.3,2.1,5.1,3.1,8.4,3.1c2.5,0,4.5-0.6,6.2-1.7
			c1.7-1.1,2.9-2.5,3.7-4.3h12.3c-0.9,3-2.4,5.7-4.4,8.1c-2.1,2.4-4.6,4.4-7.6,5.7S444.6,199.8,440.8,199.8z M440.9,160.3
			c-3,0-5.6,0.8-7.9,2.5c-2.3,1.7-3.7,4.2-4.4,7.6h23.4c-0.2-3.1-1.3-5.6-3.4-7.4C446.6,161.2,444,160.3,440.9,160.3z"/>
		<path class="st3" d="M474.7,198.6v-68.3h12.1v68.3H474.7z"/>
		<path class="st3" d="M499.3,219.5v-67.9h10.8l1.3,6.7c1.5-2.1,3.5-3.9,6-5.5c2.5-1.6,5.7-2.4,9.7-2.4c4.4,0,8.4,1.1,11.9,3.2
			c3.5,2.2,6.2,5.1,8.3,8.8c2,3.7,3,8,3,12.7c0,4.7-1,9-3,12.7c-2,3.7-4.8,6.6-8.3,8.7c-3.5,2.1-7.4,3.2-11.9,3.2
			c-3.5,0-6.6-0.7-9.3-2c-2.7-1.3-4.8-3.2-6.5-5.6v27.3H499.3z M524.6,189.1c3.9,0,7-1.3,9.6-3.9c2.5-2.6,3.8-6,3.8-10.1
			s-1.3-7.5-3.8-10.2c-2.5-2.7-5.7-4-9.6-4c-3.9,0-7.1,1.3-9.6,3.9c-2.5,2.6-3.7,6-3.7,10.1s1.3,7.5,3.7,10.1
			C517.5,187.8,520.7,189.1,524.6,189.1z"/>
		<path class="st3" d="M561.2,198.6v-68.3h12.1v68.3H561.2z"/>
		<path class="st3" d="M592.3,144.2c-2.2,0-4-0.7-5.5-2c-1.4-1.3-2.1-3-2.1-5c0-2,0.7-3.7,2.1-5c1.4-1.3,3.2-1.9,5.5-1.9
			s4,0.6,5.5,1.9c1.4,1.3,2.1,3,2.1,5c0,2-0.7,3.7-2.1,5C596.3,143.6,594.5,144.2,592.3,144.2z M586.2,198.6v-47.1h12.1v47.1H586.2z
			"/>
		<path class="st3" d="M611.1,198.6v-47.1h10.7l0.9,8c1.5-2.8,3.6-5,6.3-6.6c2.8-1.6,6-2.5,9.7-2.5c5.8,0,10.3,1.8,13.6,5.5
			c3.2,3.7,4.8,9,4.8,16.1v26.6h-12.1v-25.4c0-4.1-0.8-7.1-2.5-9.3c-1.6-2.2-4.2-3.2-7.7-3.2c-3.4,0-6.2,1.2-8.4,3.6
			c-2.2,2.4-3.3,5.8-3.3,10.1v24.3H611.1z"/>
		<path class="st3" d="M691.7,199.8c-4.7,0-8.9-1-12.6-3c-3.7-2-6.6-4.9-8.6-8.5s-3.1-7.9-3.1-12.7c0-4.9,1-9.2,3.1-13
			c2.1-3.8,4.9-6.8,8.5-8.9c3.6-2.1,7.9-3.2,12.9-3.2c4.6,0,8.7,1,12.2,3c3.5,2,6.3,4.8,8.3,8.3c2,3.5,3,7.4,3,11.7
			c0,0.7,0,1.4,0,2.2c0,0.8-0.1,1.5-0.1,2.4h-35.8c0.3,3.7,1.5,6.5,3.8,8.6c2.3,2.1,5.1,3.1,8.4,3.1c2.5,0,4.5-0.6,6.2-1.7
			c1.7-1.1,2.9-2.5,3.8-4.3h12.3c-0.9,3-2.4,5.7-4.4,8.1c-2.1,2.4-4.6,4.4-7.6,5.7C698.9,199.1,695.5,199.8,691.7,199.8z
			 M691.7,160.3c-3,0-5.6,0.8-7.9,2.5c-2.3,1.7-3.7,4.2-4.4,7.6h23.4c-0.2-3.1-1.3-5.6-3.4-7.4C697.4,161.2,694.9,160.3,691.7,160.3
			z"/>
		<path class="st3" d="M748.4,198.6v-66.4h42.9v9.8h-30.7v18.6h24.9v9.6h-24.9v28.5H748.4z"/>
		<path class="st3" d="M820.5,199.8c-4.6,0-8.7-1-12.3-3.1s-6.5-5-8.6-8.7c-2.1-3.7-3.2-8-3.2-12.9s1.1-9.2,3.2-12.9s5-6.6,8.7-8.7
			c3.6-2.1,7.7-3.1,12.3-3.1c4.5,0,8.6,1,12.2,3.1c3.6,2.1,6.5,5,8.6,8.7c2.1,3.7,3.2,8,3.2,12.9s-1.1,9.2-3.2,12.9
			c-2.1,3.7-5,6.6-8.7,8.7C829.1,198.7,825,199.8,820.5,199.8z M820.5,189.2c3.2,0,5.9-1.2,8.3-3.6c2.3-2.4,3.5-5.9,3.5-10.6
			s-1.2-8.2-3.5-10.6c-2.3-2.4-5.1-3.6-8.2-3.6c-3.2,0-6,1.2-8.3,3.6c-2.3,2.4-3.5,5.9-3.5,10.6s1.2,8.2,3.5,10.6
			C814.6,188,817.4,189.2,820.5,189.2z"/>
		<path class="st3" d="M855.5,198.6v-47.1h10.8l1.1,8.8c1.7-3,4-5.5,7-7.3c2.9-1.8,6.4-2.7,10.4-2.7v12.8h-3.4c-2.7,0-5,0.4-7.1,1.2
			s-3.7,2.2-4.9,4.3c-1.2,2-1.7,4.8-1.7,8.4v21.4H855.5z"/>
		<path class="st3" d="M364.7,300.3l-17.6-66.4h13l12,52.9l14-52.9h13.4l13.7,52.9l12-52.9h13.1l-18,66.4h-14.4L392.6,251
			l-13.6,49.2H364.7z"/>
		<path class="st3" d="M457.6,301.4c-4.1,0-7.4-0.6-10-1.9c-2.6-1.3-4.5-3-5.8-5.2s-1.9-4.5-1.9-7.1c0-4.4,1.7-7.9,5.1-10.6
			s8.5-4.1,15.4-4.1h12v-1.1c0-3.2-0.9-5.6-2.7-7.1c-1.8-1.5-4.1-2.3-6.8-2.3c-2.5,0-4.6,0.6-6.5,1.8c-1.8,1.2-3,2.9-3.4,5.2h-11.9
			c0.3-3.4,1.5-6.4,3.5-8.9c2-2.5,4.6-4.5,7.7-5.8c3.2-1.4,6.7-2,10.6-2c6.7,0,12,1.7,15.8,5c3.9,3.4,5.8,8.1,5.8,14.2v28.9h-10.3
			l-1.1-7.6c-1.4,2.5-3.3,4.6-5.8,6.3C464.8,300.6,461.6,301.4,457.6,301.4z M460.4,291.9c3.5,0,6.2-1.1,8.1-3.4
			c1.9-2.3,3.2-5.1,3.7-8.4h-10.3c-3.2,0-5.5,0.6-6.9,1.8c-1.4,1.2-2.1,2.6-2.1,4.3c0,1.8,0.7,3.3,2.1,4.3
			C456.3,291.4,458.1,291.9,460.4,291.9z"/>
		<path class="st3" d="M496.2,300.3V232h12.1v68.3H496.2z"/>
		<path class="st3" d="M543.6,301.4c-4.8,0-9-1-12.6-3c-3.7-2-6.5-4.9-8.6-8.5s-3.1-7.9-3.1-12.7c0-4.9,1-9.2,3.1-13
			c2.1-3.8,4.9-6.8,8.5-8.9c3.6-2.1,7.9-3.2,12.9-3.2c4.6,0,8.7,1,12.2,3c3.5,2,6.3,4.8,8.3,8.3c2,3.5,3,7.4,3,11.7
			c0,0.7,0,1.4,0,2.2c0,0.8-0.1,1.5-0.1,2.4h-35.8c0.3,3.7,1.5,6.5,3.8,8.6c2.3,2.1,5.1,3.1,8.4,3.1c2.5,0,4.5-0.6,6.2-1.7
			c1.7-1.1,2.9-2.5,3.7-4.3h12.3c-0.9,3-2.4,5.7-4.4,8.1c-2.1,2.4-4.6,4.4-7.6,5.7C550.8,300.7,547.4,301.4,543.6,301.4z M543.7,262
			c-3,0-5.6,0.8-7.9,2.5c-2.3,1.7-3.7,4.2-4.4,7.6h23.4c-0.2-3.1-1.3-5.6-3.4-7.4C549.4,262.9,546.8,262,543.7,262z"/>
		<path class="st3" d="M597,301.4c-4.2,0-7.8-0.7-11-2c-3.2-1.4-5.7-3.2-7.6-5.6c-1.9-2.4-3-5.2-3.4-8.4h12.2
			c0.4,1.8,1.4,3.4,3.1,4.7c1.7,1.3,3.8,1.9,6.5,1.9c2.7,0,4.6-0.5,5.8-1.6c1.2-1.1,1.9-2.3,1.9-3.7c0-2-0.9-3.4-2.7-4.1
			c-1.8-0.7-4.2-1.4-7.4-2.1c-2-0.4-4.1-1-6.2-1.6c-2.1-0.6-4-1.4-5.7-2.4c-1.7-1-3.2-2.2-4.2-3.8c-1.1-1.5-1.6-3.5-1.6-5.7
			c0-4.2,1.7-7.7,5-10.5c3.3-2.8,8-4.3,14-4.3c5.6,0,10,1.3,13.3,3.9s5.3,6.2,5.9,10.7h-11.5c-0.7-3.5-3.3-5.2-7.9-5.2
			c-2.3,0-4,0.4-5.3,1.3c-1.2,0.9-1.9,2-1.9,3.3c0,1.4,0.9,2.5,2.8,3.3c1.8,0.8,4.3,1.6,7.3,2.3c3.3,0.8,6.3,1.6,9.1,2.5
			c2.8,0.9,5,2.3,6.6,4.1c1.6,1.8,2.5,4.4,2.5,7.7c0.1,2.9-0.7,5.5-2.3,7.9c-1.6,2.3-3.9,4.2-6.8,5.5
			C604.5,300.8,601,301.4,597,301.4z"/>
	</g>
</g>
</svg>
