<?xml version="1.0" encoding="utf-8"?>
<!-- Generator: Adobe Illustrator 28.2.0, SVG Export Plug-In . SVG Version: 6.00 Build 0)  -->
<svg version="1.1" id="Layer_1" xmlns="http://www.w3.org/2000/svg" xmlns:xlink="http://www.w3.org/1999/xlink" x="0px" y="0px"
	 viewBox="0 0 166 182" style="enable-background:new 0 0 166 182;" xml:space="preserve">
<style type="text/css">
	.st0{fill:#2A7AB0;}
</style>
<g id="Group_8" transform="translate(0 0)">
	<path id="Path_3" class="st0" d="M93.2,28.1c-0.8,1.3-1.5,2.7-2.2,4.1c-6.6,13-12,26.5-16.2,40.3c13.9-9.4,29.4-16.1,45.8-19.9
		c3.4-9.6,5.6-19.7,6.4-29.8c0.5-6.4,0-15.2-5.9-18.1c-1-0.5-2.1-0.7-3.2-0.6h-2.2C111.6,6.4,103.5,10.5,93.2,28.1"/>
	<path id="Path_4" class="st0" d="M141.2,11.8c-1.5,13.9-5,27.4-10.2,40.3c7.9-1,16-0.4,23.7,1.8c3.9,1.1,7.6,2.5,11.3,4.1V15.3
		c0.4-7.7-5.5-14.2-13.2-14.6c-0.1,0-0.2,0-0.2,0h-11.3C141.8,4.3,141.8,8.1,141.2,11.8"/>
	<path id="Path_5" class="st0" d="M164.4,114.1c0,0,3.8-17-1.6-27.5c-7-14.6-25.3-18.7-38.8-18.1c-14.6,27.9-34.3,52.7-58.2,73.2
		c1.1,15.8,5.4,33.3,17.8,39.8h23.2C136.2,170.3,158,144.9,164.4,114.1"/>
	<path id="Path_6" class="st0" d="M66.9,116.4L66.9,116.4c-0.5,4.7-0.7,9.4-0.5,14c16.1-13.8,29.9-29.9,41-47.9v-0.6
		c2.1-3.5,3.9-7.3,5.4-11.1c-14.7,2.9-28.8,8.5-41.5,16.4c-2.1,8.5-3.6,17.1-4.3,25.7L66.9,116.4z"/>
	<path id="Path_7" class="st0" d="M24.3,121.7c-8,6.6-15.3,14-21.6,22.2c0,0-1.6,2.3-2.7,4.1v16.4c1.3,0.7,2.8,1.1,4.3,1.2
		c7.3-0.7,14.3-3.1,20.5-7l1.1-0.6c8.4-4.6,16.5-9.7,24.3-15.2c-0.6-15.2,1.2-30.4,5.4-45C44.7,105.2,34.3,113.2,24.3,121.7"/>
	<path id="Path_8" class="st0" d="M4.3,131.6c17.3-18.4,36.5-35.1,57.1-49.7c2.2-5.9,4.3-12.9,8.1-21.1C74.4,48.7,80.1,37,86.8,25.7
		C92.5,16.5,99.2,7.8,106.7,0H13.5C5.8,0.3-0.2,6.7,0,14.4c0,0.1,0,0.2,0,0.2v121.7C1.3,134.6,2.7,133,4.3,131.6"/>
</g>
</svg>
