<?xml version="1.0" encoding="utf-8"?>
<!-- Generator: Adobe Illustrator 28.3.0, SVG Export Plug-In . SVG Version: 6.00 Build 0)  -->
<svg version="1.1" id="Layer_1" xmlns="http://www.w3.org/2000/svg" xmlns:xlink="http://www.w3.org/1999/xlink" x="0px" y="0px"
	 viewBox="0 0 808.4 234.5" style="enable-background:new 0 0 808.4 234.5;" xml:space="preserve">
<style type="text/css">
	.st0{fill:#FFFFFF;}
</style>
<g id="Group_8" transform="translate(0 0)">
	<path id="Path_3" class="st0" d="M93.2,28.1c-0.8,1.3-1.5,2.7-2.2,4.1c-6.6,13-12,26.5-16.2,40.3c13.9-9.4,29.4-16.1,45.8-19.9
		c3.4-9.6,5.6-19.7,6.4-29.8c0.5-6.4,0-15.2-5.9-18.1c-1-0.5-2.1-0.7-3.2-0.6h-2.2C111.6,6.4,103.5,10.5,93.2,28.1"/>
	<path id="Path_4" class="st0" d="M141.2,11.8c-1.5,13.9-5,27.4-10.2,40.3c7.9-1,16-0.4,23.7,1.8c3.9,1.1,7.6,2.5,11.3,4.1V15.3
		c0.4-7.7-5.5-14.2-13.2-14.6c-0.1,0-0.2,0-0.2,0h-11.3C141.8,4.3,141.8,8.1,141.2,11.8"/>
	<path id="Path_5" class="st0" d="M164.4,114.1c0,0,3.8-17-1.6-27.5c-7-14.6-25.3-18.7-38.8-18.1c-14.6,27.9-34.3,52.7-58.2,73.2
		c1.1,15.8,5.4,33.3,17.8,39.8h23.2C136.2,170.3,158,144.9,164.4,114.1"/>
	<path id="Path_6" class="st0" d="M66.9,116.4L66.9,116.4c-0.5,4.7-0.7,9.4-0.5,14c16.1-13.8,29.9-29.9,41-47.9v-0.6
		c2.1-3.5,3.9-7.3,5.4-11.1C98.1,73.7,84,79.3,71.3,87.2c-2.1,8.5-3.6,17.1-4.3,25.7L66.9,116.4z"/>
	<path id="Path_7" class="st0" d="M24.3,121.7c-8,6.6-15.3,14-21.6,22.2c0,0-1.6,2.3-2.7,4.1v16.4c1.3,0.7,2.8,1.1,4.3,1.2
		c7.3-0.7,14.3-3.1,20.5-7l1.1-0.6c8.4-4.6,16.5-9.7,24.3-15.2c-0.6-15.2,1.2-30.4,5.4-45C44.7,105.2,34.3,113.2,24.3,121.7"/>
	<path id="Path_8" class="st0" d="M4.3,131.6c17.3-18.4,36.5-35.1,57.1-49.7c2.2-5.9,4.3-12.9,8.1-21.1C74.4,48.7,80.1,37,86.8,25.7
		C92.5,16.5,99.2,7.8,106.7,0H13.5C5.8,0.3-0.2,6.7,0,14.4c0,0.1,0,0.2,0,0.2v121.7C1.3,134.6,2.7,133,4.3,131.6"/>
	<path id="Path_9" class="st0" d="M236.6,28.7h-15.1V0.6h99.7c10.8,0,15.6,5.3,15.6,17.6v27.5h-28V34.6c0-3.5-1.6-5.9-5.4-5.9h-37.2
		v47.4h53.9v28.1h-53.9v42.7c0,3.5,1.6,5.9,5.4,5.9h38.8c3.2,0,5.4-1.8,5.4-5.9v-10.5h28v27.5c0,12.3-4.9,17.6-15.6,17.6h-75.5
		c-11.3,0-15.6-5.3-15.6-17.6V28.7H236.6z"/>
	<path id="Path_10" class="st0" d="M364.9,139.8c0,0,15.1,19.3,35.6,19.3c9.2,0,16.2-4.1,16.2-12.9c0-18.1-63.1-18.1-63.1-60.2
		c0-25.7,21.6-38,46.3-38c16.2,0,42,5.9,42,26.9v13.5h-26.4V82c0-5.9-8.6-9.4-15.1-9.4c-10.8,0-17.8,4.1-17.8,11.7
		c0,20.5,63.1,16.4,63.1,59.6c0,24.6-19.9,39.8-45.8,39.8c-19.2,0.1-37.5-8.5-49.6-23.4L364.9,139.8z"/>
	<path id="Path_11" class="st0" d="M469.4,77.2h-15.6V51.5H470V16.4h29.1v35.1h29.1v25.7h-29.1v52.6c0,21.7,15.6,24.6,23.7,24.6
		c1.8,0,3.6-0.2,5.4-0.6V182c-3,0.4-6.1,0.6-9.2,0.6c-16.7,0-49.6-5.3-49.6-48.5V77.2z"/>
	<path id="Path_12" class="st0" d="M561.6,207.1c8.1,0,15.6-5.3,19.4-16.4l3.8-9.9L546,83.7c-1.6-4.1-3.2-4.7-6.4-4.7h-3.2V51.5
		h19.4c8.6,0,12.4,3.5,15.6,12.3l23.2,64.9c1.7,5.8,3.2,11.6,4.3,17.6h0.5c0.9-5.9,2.2-11.8,3.8-17.6l20.5-64.9
		c1.3-7.5,8-12.8,15.6-12.3h19.9V79H656c-3.2-0.6-6.4,1.5-7,4.7l-42.6,116.9c-8.6,23.4-25.3,33.9-43.1,33.9
		c-11.5-0.2-22.4-5-30.2-13.5l11.3-22.8C548.9,203.1,555,206.3,561.6,207.1"/>
	<path id="Path_13" class="st0" d="M681.8,84.3c0-4.1-1.6-5.9-5.4-5.9h-9.2V51.5h27.5c10.8,0,15.6,5.3,15.6,14.6v4.1
		c0,2-0.2,3.9-0.5,5.9h0.5c7.4-16.6,23.9-27.1,42-26.9c26.4,0,41.5,15.2,41.5,49.1V148c0,3.5,1.6,5.9,5.4,5.9h9.2v27.5h-28
		c-11.3,0-15.6-5.3-15.6-17.6v-59.6c0-15.8-3.8-26.3-18.9-26.3c-15.5,0.1-28.8,11.1-31.8,26.3c-1.6,5.7-2.3,11.6-2.2,17.6v59.6
		h-29.6V84.3H681.8z"/>
</g>
</svg>
