<?xml version="1.0" encoding="utf-8"?>
<!-- Generator: Adobe Illustrator 28.3.0, SVG Export Plug-In . SVG Version: 6.00 Build 0)  -->
<svg version="1.1" id="Layer_1" xmlns="http://www.w3.org/2000/svg" xmlns:xlink="http://www.w3.org/1999/xlink" x="0px" y="0px"
	 viewBox="0 0 392.5 500.1" style="enable-background:new 0 0 392.5 500.1;" xml:space="preserve">
<style type="text/css">
	.st0{fill:#A2C83A;}
	.st1{clip-path:url(#SVGID_00000067944570472070722410000005743319231531308174_);}
	.st2{clip-path:url(#SVGID_00000144296660039378054670000003502344898265818522_);}
	.st3{fill:#BF0000;}
	.st4{clip-path:url(#SVGID_00000031895882839314694540000017001498401496469179_);}
	.st5{clip-path:url(#SVGID_00000160155397629322900870000005242844207456861631_);}
</style>
<g id="Group_1056" transform="translate(0 0)">
	<path id="Path_85" class="st0" d="M91.3,24l-5.5,7.3l14.6,12.8L91.3,24z"/>
	<path id="Path_86" class="st0" d="M91.3,24l-5.5,7.3l14.6,12.8L91.3,24z"/>
	<path id="Path_87" class="st0" d="M104,9.4l34.6-7.3l21.9,29.2L177,24l-34.6,41.9h-16.4L104,36.8V9.4z"/>
	<path id="Path_88" class="st0" d="M104,9.4l34.6-7.3l21.9,29.2L177,24l-34.6,41.9h-16.4L104,36.8V9.4z"/>
	<path id="Path_89" class="st0" d="M170.6,46.8l0.3,0l0.1-0.1L170.6,46.8z M254.4,28.6l-25.5,3.6L207,23.1V34l-25.5,14.6l-10.7-1.8
		l-26.7,20.9l-5.5,16.4L115,117h-9.1l-31,36.5l27.3-3.6l10.9,3.6l1.8-16.4l20.1-10.9h31l1.8,9.1l-1.8,18.2l14.6,18.2l-10.9,16.4
		l-1.8,10.9L177,210l12.8,3.6l-9.1,7.3l-16.4,45.6l-12.8,18.2l-25.5,20.1L84,319.4l-20.1,21.9L53,343.1H40.2l-12.8,7.3L1.9,365v6.2
		l0,1.1l21.9,9.1L7.4,406.9l38.3,7.3l9.1-10.9L53,417.8l-27.4,5.5l18.2,16.4l9.1-9.1l27.3,1.8l5.5-18.2l43.8-10.9l1.8,16.4l40.1,7.3
		l-27.4,14.6l10.9,16.4l9.1-9.1l23.7,1.8l7.3-14.6l16.4,5.5l14.6,27.4l25.5,20.1l23.7,9.1l23.7-7.3l32.8-34.6l27.3-7.3l25.5-20.1
		v-23.7l5.5-20.1l-34.6-29.2l-9.1,5.5L322,328.4l-0.1,1v-36.5l10.9-12.8l9.1-20.1l-34.7-21.9V231l27.4-14.6v-7.3h-14.6l10.9-10.9
		V189l5.5-14.6v-9.1l-21.9-16.4v-14.6l16.4-23.7l9.1,1.8l20.1,1.8l1.8,10.9l12.8-10.9v-10.9l-16.4-9.1l-14.6-45.6l-23.7-16.4
		L309.1,45l-31-27.4L254.4,28.6z"/>
	<g id="Group_1055" transform="translate(0 0)">
		<g>
			<defs>
				<rect id="SVGID_1_" width="392.5" height="500.1"/>
			</defs>
			<clipPath id="SVGID_00000002374147161958404400000005240421924313654917_">
				<use xlink:href="#SVGID_1_"  style="overflow:visible;"/>
			</clipPath>
			<g id="Group_1054" style="clip-path:url(#SVGID_00000002374147161958404400000005240421924313654917_);">
				<path id="Path_90" class="st0" d="M171,46.8l-26.8,21l-5.5,16.4L115,117h-9.1l-31,36.5l27.4-3.6l10.9,3.6l1.8-16.4l20.1-10.9h31
					l1.8,9.1l-1.8,18.2l14.6,18.2l-10.9,16.4l-1.8,10.9L177,210l12.8,3.6l-9.1,7.3l-16.4,45.6l-12.8,18.2l-25.5,20.1L84,319.4
					l-20.1,21.9L53,343.1H40.2l-12.8,7.3L1.9,365v6.2l0,1.1l21.9,9.1L7.4,406.9l38.3,7.3l9.1-10.9L53,417.8l-27.4,5.5l18.2,16.4
					l9.1-9.1l27.3,1.8l5.5-18.2l43.8-10.9l1.8,16.4l40.1,7.3l-27.4,14.6l10.9,16.4l9.1-9.1l23.7,1.8l7.3-14.6l16.4,5.5l14.6,27.4
					l25.5,20.1l23.7,9.1l23.7-7.3l32.8-34.6l27.4-7.3l25.5-20.1v-23.7l5.5-20.1l-34.6-29.2l-9.1,5.5L322,328.4l-0.1,1v-36.5
					l10.9-12.8l9.1-20.1l-34.6-21.9V231l27.4-14.6v-7.3h-14.6l10.9-10.9V189l5.5-14.6v-9.1l-21.9-16.4v-14.6l16.4-23.7l9.1,1.8
					l20.1,1.8l1.8,10.9l12.8-10.9v-10.9l-16.4-9.1l-14.6-45.6l-23.7-16.4L309.1,45l-31-27.3l-23.7,10.9l-25.5,3.7L207,23.1V34
					l-25.5,14.6l-10.9-1.8"/>
			</g>
		</g>
	</g>
</g>
<g id="Group_1059" transform="translate(169.17 46.322)">
	<g>
		<defs>
			<rect id="SVGID_00000116219594457788615180000009023486262546176178_" x="0" y="0" width="90.7" height="120.7"/>
		</defs>
		<clipPath id="SVGID_00000022533471758978911010000000339685093765300104_">
			<use xlink:href="#SVGID_00000116219594457788615180000009023486262546176178_"  style="overflow:visible;"/>
		</clipPath>
		
			<g id="Group_1043" transform="translate(0 0)" style="clip-path:url(#SVGID_00000022533471758978911010000000339685093765300104_);">
			<path id="Path_84" class="st3" d="M51,118C63.1,102.8,90.7,66,90.7,45.4C90.7,20.3,70.4,0,45.4,0C20.3,0,0,20.3,0,45.4
				C0,66,27.6,102.8,39.8,118c2.4,3.1,6.9,3.6,10,1.2C50.2,118.8,50.6,118.4,51,118 M45.4,30.2c8.4,0,15.1,6.8,15.1,15.1
				s-6.8,15.1-15.1,15.1c-8.4,0-15.1-6.8-15.1-15.1C30.2,37,37,30.2,45.4,30.2C45.4,30.2,45.4,30.2,45.4,30.2"/>
		</g>
	</g>
</g>
<g id="Group_1061" transform="translate(261.91 172.986)">
	<g>
		<defs>
			<rect id="SVGID_00000023277202664317155430000001787078706825625276_" x="0" y="0" width="51.1" height="68"/>
		</defs>
		<clipPath id="SVGID_00000145772568898501835230000008488235284101189809_">
			<use xlink:href="#SVGID_00000023277202664317155430000001787078706825625276_"  style="overflow:visible;"/>
		</clipPath>
		
			<g id="Group_1043-2" transform="translate(0 0)" style="clip-path:url(#SVGID_00000145772568898501835230000008488235284101189809_);">
			<path id="Path_84-2" class="st3" d="M28.7,66.4c6.8-8.5,22.4-29.3,22.4-40.9C51,11.4,39.4,0.1,25.3,0.2C11.4,0.4,0.1,11.6,0,25.6
				c0,11.6,15.6,32.3,22.4,40.9c1.4,1.7,3.9,2,5.7,0.7C28.3,66.9,28.5,66.7,28.7,66.4 M25.6,17c4.7,0,8.5,3.8,8.5,8.5
				s-3.8,8.5-8.5,8.5S17,30.3,17,25.6C17,20.8,20.9,17,25.6,17C25.6,17,25.6,17,25.6,17"/>
		</g>
	</g>
</g>
<g id="Group_1060" transform="translate(169.17 204.322)">
	<g>
		<defs>
			<rect id="SVGID_00000032622948764887100180000003287196815363810208_" x="0" y="0" width="45.9" height="61.1"/>
		</defs>
		<clipPath id="SVGID_00000003814194556924590680000001176507422121203074_">
			<use xlink:href="#SVGID_00000032622948764887100180000003287196815363810208_"  style="overflow:visible;"/>
		</clipPath>
		
			<g id="Group_1043-3" transform="translate(0 0)" style="clip-path:url(#SVGID_00000003814194556924590680000001176507422121203074_);">
			<path id="Path_84-3" class="st3" d="M25.8,59.7C31.9,52,45.9,33.4,45.9,23C45.8,10.3,35.4,0.1,22.8,0.2C10.2,0.3,0.1,10.5,0,23
				C0,33.4,14,52,20.1,59.7c1.2,1.6,3.5,1.8,5.1,0.6C25.4,60.1,25.6,59.9,25.8,59.7 M23,15.3c4.2,0,7.7,3.4,7.7,7.7
				s-3.4,7.7-7.7,7.7s-7.7-3.4-7.7-7.7C15.3,18.7,18.7,15.3,23,15.3C23,15.3,23,15.3,23,15.3"/>
		</g>
	</g>
</g>
</svg>
